<svg width="150" height="150" viewBox="0 0 150 150" fill="none" xmlns="http://www.w3.org/2000/svg">
<path d="M150 75C150 116.421 116.421 150 75 150C33.5786 150 0 116.421 0 75C0 33.5786 33.5786 0 75 0C116.421 0 150 33.5786 150 75Z" fill="#DDDDDD"/>
<path d="M145 75C145 113.66 113.66 145 75 145C36.3401 145 5 113.66 5 75C5 36.3401 36.3401 5 75 5C113.66 5 145 36.3401 145 75Z" fill="white"/>
<path d="M51.1601 4.94531C33.6011 10.9207 18.9263 23.2722 10.0418 39.5538C1.15732 55.8354 -1.28894 74.8598 3.18747 92.8594C7.66388 110.859 18.7365 126.521 34.2126 136.745C49.6887 146.968 68.4397 151.006 86.7522 148.061C105.065 145.115 121.603 135.4 133.093 120.839C144.582 106.278 150.185 87.9339 148.791 69.4385C147.397 50.943 139.108 33.6455 125.566 20.9713C112.024 8.29711 94.2157 1.17059 75.6686 1.00302L75.6354 4.66811C93.2639 4.82738 110.19 11.6009 123.061 23.6473C135.933 35.6938 143.811 52.1346 145.136 69.7139C146.461 87.2933 141.136 104.729 130.215 118.569C119.295 132.408 103.576 141.642 86.1701 144.442C68.7646 147.242 50.9424 143.403 36.2328 133.686C21.5233 123.969 10.9991 109.083 6.74436 91.9748C2.48967 74.8667 4.81477 56.7846 13.2592 41.3095C21.7036 25.8343 35.6516 14.0946 52.3409 8.41514L51.1601 4.94531Z" fill="#FF5733"/>
</svg>
