<svg width="150" height="150" viewBox="0 0 150 150" fill="none" xmlns="http://www.w3.org/2000/svg">
<circle cx="75" cy="75" r="75" fill="#DDDDDD"/>
<circle cx="75" cy="75" r="70" fill="white"/>
<path d="M2.67831 90.6708C5.62271 104.259 12.3359 116.744 22.0485 126.693C31.7612 136.642 44.0803 143.653 57.5942 146.924C71.1081 150.194 85.27 149.591 98.457 145.184C111.644 140.776 123.322 132.743 132.154 122.004C140.986 111.266 146.613 98.2558 148.392 84.466C150.171 70.6763 148.028 56.6644 142.21 44.0361C136.393 31.4078 127.135 20.6741 115.498 13.0649C103.86 5.4558 90.315 1.2791 76.4136 1.0135L76.3436 4.67807C89.5565 4.93052 102.431 8.90034 113.492 16.1326C124.552 23.3649 133.352 33.567 138.881 45.5698C144.411 57.5726 146.447 70.8904 144.757 83.9972C143.066 97.1039 137.718 109.469 129.323 119.676C120.929 129.883 109.829 137.519 97.2951 141.708C84.7613 145.897 71.3009 146.47 58.4563 143.361C45.6118 140.253 33.9028 133.589 24.6712 124.132C15.4397 114.676 9.05899 102.81 6.26042 89.8946L2.67831 90.6708Z" fill="#F0DB4F"/>
</svg>
