<svg width="150" height="150" viewBox="0 0 150 150" fill="none" xmlns="http://www.w3.org/2000/svg">
<circle cx="75" cy="75" r="75" fill="#DDDDDD"/>
<circle cx="75" cy="75" r="70" fill="white"/>
<path d="M75 149C94.4858 149 113.185 141.314 127.039 127.611C140.893 113.908 148.782 95.2941 148.996 75.8095C149.209 56.3249 141.728 37.5425 128.177 23.5397C114.627 9.53695 96.1 1.444 76.6189 1.01771L76.5387 4.68207C95.0549 5.08725 112.664 12.7794 125.544 26.0886C138.423 39.3978 145.533 57.2498 145.331 75.7694C145.128 94.289 137.629 111.981 124.461 125.005C111.294 138.03 93.5207 145.335 75 145.335L75 149Z" fill="#41B883"/>
</svg>
