<svg width="150" height="150" viewBox="0 0 150 150" fill="none" xmlns="http://www.w3.org/2000/svg">
<circle cx="75" cy="75" r="75" fill="#DDDDDD"/>
<circle cx="75" cy="75" r="70" fill="white"/>
<path d="M4.71449 51.8495C-0.175737 66.6963 -0.238905 82.7104 4.53404 97.5953C9.30699 112.48 18.6709 125.472 31.283 134.706C43.8951 143.941 59.1075 148.944 74.7389 149C90.3702 149.055 105.618 144.159 118.295 135.013C130.971 125.868 140.427 112.943 145.305 98.0921C150.183 83.2412 150.232 67.2271 145.447 52.3461C140.662 37.4651 131.287 24.4817 118.667 15.2576C106.048 6.03344 90.8311 1.04244 75.1997 1.00027L75.1898 4.66549C90.0469 4.70558 104.51 9.44937 116.505 18.2166C128.499 26.9839 137.41 39.3243 141.958 53.4682C146.506 67.6121 146.459 82.833 141.823 96.9484C137.186 111.064 128.199 123.348 116.15 132.041C104.101 140.733 89.6089 145.387 74.7518 145.334C59.8946 145.282 45.4357 140.526 33.4483 131.749C21.4609 122.972 12.5608 110.624 8.02424 96.4762C3.4877 82.3285 3.54773 67.1076 8.19575 52.9961L4.71449 51.8495Z" fill="#264DE4"/>
</svg>
