<svg width="150" height="150" viewBox="0 0 150 150" fill="none" xmlns="http://www.w3.org/2000/svg">
<circle cx="75" cy="75" r="75" fill="#DDDDDD"/>
<circle cx="75" cy="75" r="70" fill="white"/>
<path d="M11.5647 113.105C18.2048 124.159 27.6182 133.286 38.872 139.582C50.1259 145.877 62.8296 149.123 75.7241 148.996C88.6186 148.87 101.256 145.377 112.385 138.862C123.513 132.348 132.746 123.038 139.169 111.856C145.591 100.674 148.98 88.0079 149 75.1127C149.02 62.2176 145.669 49.5412 139.281 38.3397C132.892 27.1382 123.688 17.8006 112.579 11.2521C101.471 4.70356 88.8436 1.17156 75.9496 1.00609L75.9025 4.67103C88.158 4.8283 100.16 8.18536 110.718 14.4095C121.276 20.6337 130.025 29.5089 136.097 40.1555C142.169 50.8022 145.353 62.8507 145.335 75.1072C145.316 87.3636 142.095 99.4024 135.991 110.03C129.886 120.659 121.11 129.507 110.533 135.699C99.9558 141.891 87.9441 145.211 75.6882 145.331C63.4324 145.451 51.3579 142.367 40.6615 136.383C29.965 130.399 21.0178 121.724 14.7067 111.217L11.5647 113.105Z" fill="#0868AC"/>
</svg>
